<svg xmlns="http://www.w3.org/2000/svg" xmlns:xlink="http://www.w3.org/1999/xlink" version="1.1" x="0px" y="0px" viewBox="0 0 1000 1250" style="enable-background:new 0 0 1000 1000;" xml:space="preserve"><g><path d="M816.5,574.3c9.2,18.6-2.5-97.5,42.8,29.7c6,16.8,29.2,9.7,38.4,24.5c16.5,26.4,34.3,52.1,51.8,77.9   c9.1,13.4,5.7,20.1-10.3,20.6c-6.7,0.2-13.5,0.3-20.2,0.3c-280.8,0-561.6,0-842.4-0.3c-9.3,0-19.6,3.1-29.7-4.3   c-1.9-1.4-2-4.1-0.1-5.6c14.9-12,28.7-24.8,44.4-34.3c24.6-14.9,35.4-38.3,41.9-63.6c8.3-32.1,26.1-53.5,57.6-64.2   c19.5-6.6,36.1-41.1,50.4-28.8c28.9,24.9,52.5-58.7,78-88.8c35.8,0,26.2-45.8,62.3-3.6c1.2,1.4,3.3,1.8,4.8,0.7   c9.7-7,30.4,41.5,45.8,58.2c21,23,36.3,21,50-6.9c32.8-66.6,64.7-133.5,97.4-200.1c3.5-7.1,23.3,5.7,20.1-10.5   c-1.5-7.8,4.6,2.8,8.5,9c27.4,44.5,54.5,89.2,81.8,133.7l23.5,29.1c4.8,5.9,9.4,12,13.6,18.4c5.5,8.3,46.3,67.5,61.8,36.1   C797.4,484,816.5,574.3,816.5,574.3z M586.4,352.7c0.2-3.9-5.9-5.5-6.6-1.7C558,466.8,442.5,521,503.3,517   c17.5-1.1,10.5,35.7,12.5,24.3c9.1-51.4,43.6,27.4,54.7,52.5c1.4,3.2,3.3,6.1,5.3,9c2.1,3,6.7,1.2,6.3-2.4   c-1.2-10.9-3.9-21-6.4-31.1c-1.8-7.3-4.4-52.9,5.6-18.9c7,23.6,81.5-40.6,72.3,3.6c5.1,4.3,10.9,7.8,16.8,11.2c3.4,2,7-2.3,4.4-5.3   c0,0-0.1-0.1-0.1-0.1c-22.1-25.2-38.9-58.9-83-46.8c-10.5,2.9-16.2-6.7-15.6-17.8c1.1-19.3,2.9-38.6,3.2-57.9   c-30,15.5,3.9-24,17-24.4c3-0.1,4.4-3.9,2.3-6C582.2,391.1,585.2,372,586.4,352.7z M330.5,477c-4-18.4-21.5,28.4-32.1,41.1   c-9.1,11,0.3,46.1,5.3,33.9c7.2-17.8,33.2,19.9,50.8,34.6c2.8,2.3,0.5,6.9-3,6.1c-28-6.3-100.5,0.1-74.2-23.4   c12.5-11.1-39.9,2.7-65.5,20.4c-3,2.1-1.1,6.9,2.5,6.3c71.1-11.8,253.8,79.2,197.5,42.8c-2.5-1.6,5.3-2.4,3.9-5   c-14-26.8-71.2-77.5-45.7-69.9c22.6-1.7-45.3-30.8-33-84.4c0.1-0.3,0-0.6-0.3-1.5C335.7,475.4,333.8,492.3,330.5,477z"/></g><text x="0" y="1015" fill="#000000" font-size="5px" font-weight="bold" font-family="'Helvetica Neue', Helvetica, Arial-Unicode, Arial, Sans-serif">Created by leo-graph.com</text><text x="0" y="1020" fill="#000000" font-size="5px" font-weight="bold" font-family="'Helvetica Neue', Helvetica, Arial-Unicode, Arial, Sans-serif">from the Noun Project</text></svg>