<svg xmlns="http://www.w3.org/2000/svg" xmlns:xlink="http://www.w3.org/1999/xlink" xml:space="preserve" style="shape-rendering:geometricPrecision;text-rendering:geometricPrecision;image-rendering:optimizeQuality;" viewBox="0 0 0.300685 0.170925" x="0px" y="0px" fill-rule="evenodd" clip-rule="evenodd"><defs><style type="text/css">
   
    .fil0 {fill:black}
   
  </style></defs><g><path class="fil0" d="M-0 0.13674l0.0573976 -0.0697323 0.0279173 0.0176811 0.0567717 -0.084689 0.0494685 0.0761732 0.0240512 -0.0482559 0.0850787 0.108823 -0.300685 0zm0.101165 -0.0656024l-0.017815 0.0221457 0.0144488 -0.00770079 0.00336614 -0.0144449zm-0.0418898 0.00337008l-0.0052126 0.0144961 0.0073937 0.0017126 -0.00477165 0.0141811 -0.0261417 0.0208622 0.0210472 -0.0247165 -0.00928346 -0.00255118 0.0169685 -0.0239843zm0.0808898 -0.0621063l-0.029374 0.0524764 0.0134803 -0.00962598 -0.0245551 0.039 -0.0168465 0.0105945 -0.0110787 0.0202165 0.038937 -0.0248504 0.00487795 0.0176339 0.0053937 -0.0292362 0.0148228 -0.00446457 -0.00384646 -0.0125236 0.0115551 -0.0394803 -0.00866142 0.00529528 0.00529528 -0.0250354zm0.0775157 0.0322559l-0.0202244 0.0375512 -0.0161772 0.0103031 -0.0155984 0.025811 0.0226299 -0.00770079 0.00192126 0.0139606 0.0124094 -0.0210827 0.0111102 0.0189488 0.00825984 -0.0373465 -0.013 0.0019252 0.00866929 -0.0423701z"/></g><text x="0" y="15.13674" fill="#000000" font-size="5px" font-weight="bold" font-family="'Helvetica Neue', Helvetica, Arial-Unicode, Arial, Sans-serif">Created by Yusuf Designer</text><text x="0" y="20.13674" fill="#000000" font-size="5px" font-weight="bold" font-family="'Helvetica Neue', Helvetica, Arial-Unicode, Arial, Sans-serif">from the Noun Project</text></svg>