<?xml version="1.0" encoding="UTF-8" standalone="no"?>
<!DOCTYPE svg PUBLIC "-//W3C//DTD SVG 1.1//EN"
 "http://www.w3.org/Graphics/SVG/1.1/DTD/svg11.dtd">
<!-- Generated by graphviz version 2.40.1 (20161225.0304)
 -->
<!-- Title: dependencies Pages: 1 -->
<svg width="2829pt" height="284pt"
 viewBox="0.00 0.00 2829.00 284.00" xmlns="http://www.w3.org/2000/svg" xmlns:xlink="http://www.w3.org/1999/xlink">
<g id="graph0" class="graph" transform="scale(1 1) rotate(0) translate(4 280)">
<title>dependencies</title>
<polygon fill="#ffffff" stroke="transparent" points="-4,4 -4,-280 2825,-280 2825,4 -4,4"/>
<text text-anchor="start" x="1389.5091" y="-42.4" font-family="sans-serif" font-weight="bold" font-size="14.00" fill="#000000">Legend</text>
<polygon fill="#ffffb3" stroke="transparent" points="1176.5,-10 1176.5,-30 1196.5,-30 1196.5,-10 1176.5,-10"/>
<text text-anchor="start" x="1200.129" y="-15.4" font-family="sans-serif" font-size="14.00" fill="#000000"> &#160;Declarations</text>
<polygon fill="#8dd3c7" stroke="transparent" points="1289.5,-10 1289.5,-30 1309.5,-30 1309.5,-10 1289.5,-10"/>
<text text-anchor="start" x="1313.2251" y="-15.4" font-family="sans-serif" font-size="14.00" fill="#000000"> &#160;Module</text>
<polygon fill="#80b1d3" stroke="transparent" points="1375.5,-10 1375.5,-30 1395.5,-30 1395.5,-10 1375.5,-10"/>
<text text-anchor="start" x="1399.2812" y="-15.4" font-family="sans-serif" font-size="14.00" fill="#000000"> &#160;Bootstrap</text>
<polygon fill="#fdb462" stroke="transparent" points="1472.5,-10 1472.5,-30 1492.5,-30 1492.5,-10 1472.5,-10"/>
<text text-anchor="start" x="1496.1732" y="-15.4" font-family="sans-serif" font-size="14.00" fill="#000000"> &#160;Providers</text>
<polygon fill="#fb8072" stroke="transparent" points="1568.5,-10 1568.5,-30 1588.5,-30 1588.5,-10 1568.5,-10"/>
<text text-anchor="start" x="1592.2258" y="-15.4" font-family="sans-serif" font-size="14.00" fill="#000000"> &#160;Exports</text>
<g id="clust1" class="cluster">
<title>cluster_AppModule</title>
<polygon fill="none" stroke="#000000" stroke-dasharray="1,5" points="8,-70 8,-268 2813,-268 2813,-70 8,-70"/>
</g>
<g id="clust2" class="cluster">
<title>cluster_AppModule_declarations</title>
<polygon fill="none" stroke="#000000" points="484,-78 484,-130 2805,-130 2805,-78 484,-78"/>
</g>
<g id="clust18" class="cluster">
<title>cluster_AppModule_imports</title>
<polygon fill="none" stroke="#000000" points="332,-78 332,-130 476,-130 476,-78 332,-78"/>
</g>
<g id="clust20" class="cluster">
<title>cluster_AppModule_bootstrap</title>
<polygon fill="none" stroke="#000000" points="1370,-208 1370,-260 1494,-260 1494,-208 1370,-208"/>
</g>
<g id="clust21" class="cluster">
<title>cluster_AppModule_providers</title>
<polygon fill="none" stroke="#000000" points="16,-78 16,-130 324,-130 324,-78 16,-78"/>
</g>
<!-- AppComponent -->
<g id="node1" class="node">
<title>AppComponent</title>
<polygon fill="#ffffb3" stroke="#000000" points="2796.9399,-122 2691.0601,-122 2691.0601,-86 2796.9399,-86 2796.9399,-122"/>
<text text-anchor="middle" x="2744" y="-99.8" font-family="Times,serif" font-size="14.00" fill="#000000">AppComponent</text>
</g>
<!-- AppModule -->
<g id="node16" class="node">
<title>AppModule</title>
<polygon fill="#8dd3c7" stroke="#000000" points="1473.6571,-187 1470.6571,-191 1449.6571,-191 1446.6571,-187 1390.3429,-187 1390.3429,-151 1473.6571,-151 1473.6571,-187"/>
<text text-anchor="middle" x="1432" y="-164.8" font-family="Times,serif" font-size="14.00" fill="#000000">AppModule</text>
</g>
<!-- AppComponent&#45;&gt;AppModule -->
<g id="edge1" class="edge">
<title>AppComponent&#45;&gt;AppModule</title>
<path fill="none" stroke="#000000" d="M2744,-122.3228C2744,-145.6602 2744,-183 2744,-183 2744,-183 1483.7988,-183 1483.7988,-183"/>
<polygon fill="#000000" stroke="#000000" points="1483.7989,-179.5001 1473.7988,-183 1483.7988,-186.5001 1483.7989,-179.5001"/>
</g>
<!-- CharacterEditorComponent -->
<g id="node2" class="node">
<title>CharacterEditorComponent</title>
<polygon fill="#ffffb3" stroke="#000000" points="2673.2338,-122 2502.7662,-122 2502.7662,-86 2673.2338,-86 2673.2338,-122"/>
<text text-anchor="middle" x="2588" y="-99.8" font-family="Times,serif" font-size="14.00" fill="#000000">CharacterEditorComponent</text>
</g>
<!-- CharacterEditorComponent&#45;&gt;AppModule -->
<g id="edge2" class="edge">
<title>CharacterEditorComponent&#45;&gt;AppModule</title>
<path fill="none" stroke="#000000" d="M2588,-122.1554C2588,-144.3519 2588,-179 2588,-179 2588,-179 1483.8256,-179 1483.8256,-179"/>
<polygon fill="#000000" stroke="#000000" points="1483.8256,-175.5001 1473.8256,-179 1483.8256,-182.5001 1483.8256,-175.5001"/>
</g>
<!-- CharacterFeaturesComponent -->
<g id="node3" class="node">
<title>CharacterFeaturesComponent</title>
<polygon fill="#ffffb3" stroke="#000000" points="2484.6615,-122 2301.3385,-122 2301.3385,-86 2484.6615,-86 2484.6615,-122"/>
<text text-anchor="middle" x="2393" y="-99.8" font-family="Times,serif" font-size="14.00" fill="#000000">CharacterFeaturesComponent</text>
</g>
<!-- CharacterFeaturesComponent&#45;&gt;AppModule -->
<g id="edge3" class="edge">
<title>CharacterFeaturesComponent&#45;&gt;AppModule</title>
<path fill="none" stroke="#000000" d="M2393,-122.2843C2393,-143.3211 2393,-175 2393,-175 2393,-175 1483.9109,-175 1483.9109,-175"/>
<polygon fill="#000000" stroke="#000000" points="1483.9109,-171.5001 1473.9109,-175 1483.9109,-178.5001 1483.9109,-171.5001"/>
</g>
<!-- DialogComponent -->
<g id="node4" class="node">
<title>DialogComponent</title>
<polygon fill="#ffffb3" stroke="#000000" points="2283.9356,-122 2164.0644,-122 2164.0644,-86 2283.9356,-86 2283.9356,-122"/>
<text text-anchor="middle" x="2224" y="-99.8" font-family="Times,serif" font-size="14.00" fill="#000000">DialogComponent</text>
</g>
<!-- DialogComponent&#45;&gt;AppModule -->
<g id="edge4" class="edge">
<title>DialogComponent&#45;&gt;AppModule</title>
<path fill="none" stroke="#000000" d="M2224,-122.308C2224,-142.1455 2224,-171 2224,-171 2224,-171 1483.7438,-171 1483.7438,-171"/>
<polygon fill="#000000" stroke="#000000" points="1483.7438,-167.5001 1473.7438,-171 1483.7438,-174.5001 1483.7438,-167.5001"/>
</g>
<!-- DisplayDataComponent -->
<g id="node5" class="node">
<title>DisplayDataComponent</title>
<polygon fill="#ffffb3" stroke="#000000" points="2146.8061,-122 1995.1939,-122 1995.1939,-86 2146.8061,-86 2146.8061,-122"/>
<text text-anchor="middle" x="2071" y="-99.8" font-family="Times,serif" font-size="14.00" fill="#000000">DisplayDataComponent</text>
</g>
<!-- DisplayDataComponent&#45;&gt;AppModule -->
<g id="edge5" class="edge">
<title>DisplayDataComponent&#45;&gt;AppModule</title>
<path fill="none" stroke="#000000" d="M2071,-122.2222C2071,-140.8285 2071,-167 2071,-167 2071,-167 1483.9266,-167 1483.9266,-167"/>
<polygon fill="#000000" stroke="#000000" points="1483.9266,-163.5001 1473.9266,-167 1483.9265,-170.5001 1483.9266,-163.5001"/>
</g>
<!-- EditorComponent -->
<g id="node6" class="node">
<title>EditorComponent</title>
<polygon fill="#ffffb3" stroke="#000000" points="1977.3273,-122 1860.6727,-122 1860.6727,-86 1977.3273,-86 1977.3273,-122"/>
<text text-anchor="middle" x="1919" y="-99.8" font-family="Times,serif" font-size="14.00" fill="#000000">EditorComponent</text>
</g>
<!-- EditorComponent&#45;&gt;AppModule -->
<g id="edge6" class="edge">
<title>EditorComponent&#45;&gt;AppModule</title>
<path fill="none" stroke="#000000" d="M1919,-122.0225C1919,-139.3734 1919,-163 1919,-163 1919,-163 1483.9428,-163 1483.9428,-163"/>
<polygon fill="#000000" stroke="#000000" points="1483.9429,-159.5001 1473.9428,-163 1483.9428,-166.5001 1483.9429,-159.5001"/>
</g>
<!-- GameComponent -->
<g id="node7" class="node">
<title>GameComponent</title>
<polygon fill="#ffffb3" stroke="#000000" points="1842.2591,-122 1727.7409,-122 1727.7409,-86 1842.2591,-86 1842.2591,-122"/>
<text text-anchor="middle" x="1785" y="-99.8" font-family="Times,serif" font-size="14.00" fill="#000000">GameComponent</text>
</g>
<!-- GameComponent&#45;&gt;AppModule -->
<g id="edge7" class="edge">
<title>GameComponent&#45;&gt;AppModule</title>
<path fill="none" stroke="#000000" d="M1785,-122.0091C1785,-138.0494 1785,-159 1785,-159 1785,-159 1483.8799,-159 1483.8799,-159"/>
<polygon fill="#000000" stroke="#000000" points="1483.88,-155.5001 1473.8799,-159 1483.8799,-162.5001 1483.88,-155.5001"/>
</g>
<!-- HeaderComponent -->
<g id="node8" class="node">
<title>HeaderComponent</title>
<polygon fill="#ffffb3" stroke="#000000" points="1709.7437,-122 1588.2563,-122 1588.2563,-86 1709.7437,-86 1709.7437,-122"/>
<text text-anchor="middle" x="1649" y="-99.8" font-family="Times,serif" font-size="14.00" fill="#000000">HeaderComponent</text>
</g>
<!-- HeaderComponent&#45;&gt;AppModule -->
<g id="edge8" class="edge">
<title>HeaderComponent&#45;&gt;AppModule</title>
<path fill="none" stroke="#000000" d="M1649,-122.1243C1649,-136.7832 1649,-155 1649,-155 1649,-155 1483.8398,-155 1483.8398,-155"/>
<polygon fill="#000000" stroke="#000000" points="1483.8398,-151.5001 1473.8398,-155 1483.8397,-158.5001 1483.8398,-151.5001"/>
</g>
<!-- HomeComponent -->
<g id="node9" class="node">
<title>HomeComponent</title>
<polygon fill="#ffffb3" stroke="#000000" points="1569.5451,-122 1454.4549,-122 1454.4549,-86 1569.5451,-86 1569.5451,-122"/>
<text text-anchor="middle" x="1512" y="-99.8" font-family="Times,serif" font-size="14.00" fill="#000000">HomeComponent</text>
</g>
<!-- HomeComponent&#45;&gt;AppModule -->
<g id="edge9" class="edge">
<title>HomeComponent&#45;&gt;AppModule</title>
<path fill="none" stroke="#000000" d="M1464.028,-122.1061C1464.028,-122.1061 1464.028,-140.991 1464.028,-140.991"/>
<polygon fill="#000000" stroke="#000000" points="1460.5281,-140.9909 1464.028,-150.991 1467.5281,-140.991 1460.5281,-140.9909"/>
</g>
<!-- RiskPerceptionComponent -->
<g id="node10" class="node">
<title>RiskPerceptionComponent</title>
<polygon fill="#ffffb3" stroke="#000000" points="1436.3724,-122 1269.6276,-122 1269.6276,-86 1436.3724,-86 1436.3724,-122"/>
<text text-anchor="middle" x="1353" y="-99.8" font-family="Times,serif" font-size="14.00" fill="#000000">RiskPerceptionComponent</text>
</g>
<!-- RiskPerceptionComponent&#45;&gt;AppModule -->
<g id="edge10" class="edge">
<title>RiskPerceptionComponent&#45;&gt;AppModule</title>
<path fill="none" stroke="#000000" d="M1413.304,-122.1061C1413.304,-122.1061 1413.304,-140.991 1413.304,-140.991"/>
<polygon fill="#000000" stroke="#000000" points="1409.8041,-140.9909 1413.304,-150.991 1416.8041,-140.991 1409.8041,-140.9909"/>
</g>
<!-- SceneryComponent -->
<g id="node11" class="node">
<title>SceneryComponent</title>
<polygon fill="#ffffb3" stroke="#000000" points="1251.4201,-122 1124.5799,-122 1124.5799,-86 1251.4201,-86 1251.4201,-122"/>
<text text-anchor="middle" x="1188" y="-99.8" font-family="Times,serif" font-size="14.00" fill="#000000">SceneryComponent</text>
</g>
<!-- SceneryComponent&#45;&gt;AppModule -->
<g id="edge11" class="edge">
<title>SceneryComponent&#45;&gt;AppModule</title>
<path fill="none" stroke="#000000" d="M1188,-122.1243C1188,-136.7832 1188,-155 1188,-155 1188,-155 1380.3321,-155 1380.3321,-155"/>
<polygon fill="#000000" stroke="#000000" points="1380.3322,-158.5001 1390.3321,-155 1380.3321,-151.5001 1380.3322,-158.5001"/>
</g>
<!-- SceneryEditorComponent -->
<g id="node12" class="node">
<title>SceneryEditorComponent</title>
<polygon fill="#ffffb3" stroke="#000000" points="1106.9143,-122 945.0857,-122 945.0857,-86 1106.9143,-86 1106.9143,-122"/>
<text text-anchor="middle" x="1026" y="-99.8" font-family="Times,serif" font-size="14.00" fill="#000000">SceneryEditorComponent</text>
</g>
<!-- SceneryEditorComponent&#45;&gt;AppModule -->
<g id="edge12" class="edge">
<title>SceneryEditorComponent&#45;&gt;AppModule</title>
<path fill="none" stroke="#000000" d="M1026,-122.0091C1026,-138.0494 1026,-159 1026,-159 1026,-159 1380.0801,-159 1380.0801,-159"/>
<polygon fill="#000000" stroke="#000000" points="1380.0801,-162.5001 1390.0801,-159 1380.08,-155.5001 1380.0801,-162.5001"/>
</g>
<!-- SigninComponent -->
<g id="node13" class="node">
<title>SigninComponent</title>
<polygon fill="#ffffb3" stroke="#000000" points="926.8962,-122 809.1038,-122 809.1038,-86 926.8962,-86 926.8962,-122"/>
<text text-anchor="middle" x="868" y="-99.8" font-family="Times,serif" font-size="14.00" fill="#000000">SigninComponent</text>
</g>
<!-- SigninComponent&#45;&gt;AppModule -->
<g id="edge13" class="edge">
<title>SigninComponent&#45;&gt;AppModule</title>
<path fill="none" stroke="#000000" d="M868,-122.0225C868,-139.3734 868,-163 868,-163 868,-163 1380.0691,-163 1380.0691,-163"/>
<polygon fill="#000000" stroke="#000000" points="1380.0691,-166.5001 1390.0691,-163 1380.0691,-159.5001 1380.0691,-166.5001"/>
</g>
<!-- SignupComponent -->
<g id="node14" class="node">
<title>SignupComponent</title>
<polygon fill="#ffffb3" stroke="#000000" points="791.5056,-122 670.4944,-122 670.4944,-86 791.5056,-86 791.5056,-122"/>
<text text-anchor="middle" x="731" y="-99.8" font-family="Times,serif" font-size="14.00" fill="#000000">SignupComponent</text>
</g>
<!-- SignupComponent&#45;&gt;AppModule -->
<g id="edge14" class="edge">
<title>SignupComponent&#45;&gt;AppModule</title>
<path fill="none" stroke="#000000" d="M731,-122.2222C731,-140.8285 731,-167 731,-167 731,-167 1380.2486,-167 1380.2486,-167"/>
<polygon fill="#000000" stroke="#000000" points="1380.2486,-170.5001 1390.2486,-167 1380.2485,-163.5001 1380.2486,-170.5001"/>
</g>
<!-- VideoPrimingComponent -->
<g id="node15" class="node">
<title>VideoPrimingComponent</title>
<polygon fill="#ffffb3" stroke="#000000" points="652.1596,-122 491.8404,-122 491.8404,-86 652.1596,-86 652.1596,-122"/>
<text text-anchor="middle" x="572" y="-99.8" font-family="Times,serif" font-size="14.00" fill="#000000">VideoPrimingComponent</text>
</g>
<!-- VideoPrimingComponent&#45;&gt;AppModule -->
<g id="edge15" class="edge">
<title>VideoPrimingComponent&#45;&gt;AppModule</title>
<path fill="none" stroke="#000000" d="M572,-122.308C572,-142.1455 572,-171 572,-171 572,-171 1380.2298,-171 1380.2298,-171"/>
<polygon fill="#000000" stroke="#000000" points="1380.2298,-174.5001 1390.2298,-171 1380.2297,-167.5001 1380.2298,-174.5001"/>
</g>
<!-- AppComponent  -->
<g id="node18" class="node">
<title>AppComponent </title>
<polygon fill="#80b1d3" stroke="#000000" points="1486.439,-252 1377.561,-252 1377.561,-216 1486.439,-216 1486.439,-252"/>
<text text-anchor="middle" x="1432" y="-229.8" font-family="Times,serif" font-size="14.00" fill="#000000">AppComponent </text>
</g>
<!-- AppModule&#45;&gt;AppComponent  -->
<g id="edge17" class="edge">
<title>AppModule&#45;&gt;AppComponent </title>
<path fill="none" stroke="#000000" stroke-dasharray="1,5" d="M1432,-187.1061C1432,-187.1061 1432,-205.991 1432,-205.991"/>
<polygon fill="#000000" stroke="#000000" points="1428.5001,-205.9909 1432,-215.991 1435.5001,-205.991 1428.5001,-205.9909"/>
</g>
<!-- AppRoutingModule -->
<g id="node17" class="node">
<title>AppRoutingModule</title>
<polygon fill="#8dd3c7" stroke="#000000" points="468.2744,-122 465.2744,-126 444.2744,-126 441.2744,-122 339.7256,-122 339.7256,-86 468.2744,-86 468.2744,-122"/>
<text text-anchor="middle" x="404" y="-99.8" font-family="Times,serif" font-size="14.00" fill="#000000">AppRoutingModule</text>
</g>
<!-- AppRoutingModule&#45;&gt;AppModule -->
<g id="edge16" class="edge">
<title>AppRoutingModule&#45;&gt;AppModule</title>
<path fill="none" stroke="#000000" d="M404,-122.2843C404,-143.3211 404,-175 404,-175 404,-175 1380.1069,-175 1380.1069,-175"/>
<polygon fill="#000000" stroke="#000000" points="1380.1069,-178.5001 1390.1069,-175 1380.1068,-171.5001 1380.1069,-178.5001"/>
</g>
<!-- AuthService -->
<g id="node19" class="node">
<title>AuthService</title>
<ellipse fill="#fdb462" stroke="#000000" cx="257" cy="-104" rx="59.1083" ry="18"/>
<text text-anchor="middle" x="257" y="-99.8" font-family="Times,serif" font-size="14.00" fill="#000000">AuthService</text>
</g>
<!-- AuthService&#45;&gt;AppModule -->
<g id="edge18" class="edge">
<title>AuthService&#45;&gt;AppModule</title>
<path fill="none" stroke="#000000" d="M257,-122.1554C257,-144.3519 257,-179 257,-179 257,-179 1380.1811,-179 1380.1811,-179"/>
<polygon fill="#000000" stroke="#000000" points="1380.1812,-182.5001 1390.1811,-179 1380.1811,-175.5001 1380.1812,-182.5001"/>
</g>
<!-- CharacterService -->
<g id="node20" class="node">
<title>CharacterService</title>
<ellipse fill="#fdb462" stroke="#000000" cx="102" cy="-104" rx="77.5414" ry="18"/>
<text text-anchor="middle" x="102" y="-99.8" font-family="Times,serif" font-size="14.00" fill="#000000">CharacterService</text>
</g>
<!-- CharacterService&#45;&gt;AppModule -->
<g id="edge19" class="edge">
<title>CharacterService&#45;&gt;AppModule</title>
<path fill="none" stroke="#000000" d="M102,-122.3228C102,-145.6602 102,-183 102,-183 102,-183 1379.9991,-183 1379.9991,-183"/>
<polygon fill="#000000" stroke="#000000" points="1379.9991,-186.5001 1389.9991,-183 1379.9991,-179.5001 1379.9991,-186.5001"/>
</g>
</g>
</svg>
